PathFileType	4	(X/Y/Z)	/Users/itak/Documents/Research/Walk-IL/dataset/trc/00552_00009.trc
DataRate	CameraRate	NumFrames	NumMarkers	Units	OrigDataRate	OrigDataStartFrame	OrigNumFrames
100.000000	100.000000	4	53	mm	100.000000	69	554
Frame#	Time	RPSI			LPSI			L3			STRN			T10			C7			CLAV			RBAK			LBAK			LSHO			LUPA			LAEL			LAOL			LWTS			LWPS			LFRA			LIFD			LHPS			LHTS			RSHO			RUPA			RAEL			RAOL			RWTS			RWPS			RFRA			RIFD			RHTS			RHPS			RBHD			LFHD			RFHD			LBHD			LHIP			RHIP			RASI			LASI			LKNE			LTHI			LANK			LTIP			LTOE			LMT1			LMT5			LHEE			RKNE			RTHI			RANK			RTIP			RTOE			RMT1			RMT5			RHEE			
		X1	Y1	Z1	X2	Y2	Z2	X3	Y3	Z3	X4	Y4	Z4	X5	Y5	Z5	X6	Y6	Z6	X7	Y7	Z7	X8	Y8	Z8	X9	Y9	Z9	X10	Y10	Z10	X11	Y11	Z11	X12	Y12	Z12	X13	Y13	Z13	X14	Y14	Z14	X15	Y15	Z15	X16	Y16	Z16	X17	Y17	Z17	X18	Y18	Z18	X19	Y19	Z19	X20	Y20	Z20	X21	Y21	Z21	X22	Y22	Z22	X23	Y23	Z23	X24	Y24	Z24	X25	Y25	Z25	X26	Y26	Z26	X27	Y27	Z27	X28	Y28	Z28	X29	Y29	Z29	X30	Y30	Z30	X31	Y31	Z31	X32	Y32	Z32	X33	Y33	Z33	X34	Y34	Z34	X35	Y35	Z35	X36	Y36	Z36	X37	Y37	Z37	X38	Y38	Z38	X39	Y39	Z39	X40	Y40	Z40	X41	Y41	Z41	X42	Y42	Z42	X43	Y43	Z43	X44	Y44	Z44	X45	Y45	Z45	X46	Y46	Z46	X47	Y47	Z47	X48	Y48	Z48	X49	Y49	Z49	X50	Y50	Z50	X51	Y51	Z51	X52	Y52	Z52	X53	Y53	Z53	

70	0.6900000000000001	-997.2117919921875	1016.082275390625	239.7369537353516	-993.14013671875	1019.176147460938	106.1977996826172	-992.664306640625	1104.536376953125	168.8563232421875	-769.033203125	1297.049072265625	162.8682403564453	-1009.493225097656	1229.435913085938	168.6940307617188	-969.0409545898438	1503.796020507812	181.9766235351562	-791.7528686523438	1407.797119140625	164.6095886230469	-1034.808715820312	1377.02685546875	267.6175842285156	-1003.83544921875	1451.095947265625	91.27248382568359	-909.4714965820312	1479.7421875	7.246720790863037	-919.2867431640625	1353.92626953125	-72.92084503173828	-891.74072265625	1131.536743164062	-95.15808868408203	-978.4310302734375	1121.464477539062	-44.16497039794922	-794.6946411132812	889.8295288085938	-46.37004852294922	-837.7588500976562	866.2736206054688	-118.3161392211914	-866.6470947265625	1045.380981445312	-101.2055511474609	-786.3843383789062	721.2369995117188	-54.75534439086914	-828.4395751953125	806.591064453125	-109.8022003173828	-773.9411010742188	814.5905151367188	-67.81302642822266	-904.4761962890625	1464.703979492188	334.5483093261719	-920.48388671875	1398.484497070312	401.327880859375	-910.9993286132812	1108.4365234375	446.8805236816406	-966.7252807617188	1091.08447265625	422.3449096679688	-779.0023803710938	887.8883056640625	393.9580993652344	-817.6421508789062	867.7393798828125	464.4460754394531	-898.31396484375	1053.344482421875	452.2431945800781	-767.1429443359375	713.9764404296875	400.03076171875	-750.8754272460938	796.2928466796875	405.6019897460938	-801.2084350585938	792.7186279296875	460.0174865722656	-907.6968383789062	1683.37109375	236.7657775878906	-748.1973266601562	1717.201538085938	107.8350143432617	-772.0225219726562	1718.101196289062	249.973876953125	-872.6109008789062	1681.406127929688	74.73877716064453	-866.0747680664062	938.9889526367188	-23.74713897705078	-877.63330078125	941.456787109375	364.2503662109375	-788.3888549804688	969.820556640625	306.4068603515625	-786.0601806640625	962.7041625976562	29.52708435058594	-864.8758544921875	493.7047119140625	45.79758071899414	-853.4017333984375	658.5932006835938	3.770588397979736	-950.6205444335938	33.32102203369141	63.72226333618164	-933.1632690429688	250.0502624511719	45.19315338134766	-741.4085083007812	38.98714447021484	121.1516876220703	-812.24951171875	40.74149703979492	156.8528747558594	-827.7395629882812	35.07503890991211	50.63714981079102	-1020.310546875	36.48445510864258	118.7848739624023	-876.2745971679688	496.6962890625	320.44091796875	-845.3073120117188	785.6024780273438	362.3208312988281	-977.382568359375	36.25438690185547	310.1811828613281	-884.8091430664062	354.5878601074219	309.1116943359375	-756.2442016601562	39.55145645141602	269.8597412109375	-820.2313232421875	40.56320571899414	228.7623596191406	-843.2544555664062	36.27836608886719	331.3076782226562	-1031.768676757812	32.55492782592773	253.1183166503906	
71	0.7000000000000001	-997.099365234375	1016.177185058594	239.5094299316406	-992.919189453125	1019.282897949219	105.8400039672852	-992.4312744140625	1104.576904296875	168.6031646728516	-768.669921875	1297.018676757812	162.5481109619141	-1009.169738769531	1229.507690429688	168.4159545898438	-968.647216796875	1503.828247070312	181.7155151367188	-791.3936767578125	1407.7685546875	164.3053436279297	-1034.433227539062	1377.072875976562	267.3567810058594	-1003.474792480469	1451.1689453125	91.01377868652344	-909.0287475585938	1479.779052734375	7.010404586791992	-918.8626708984375	1353.97900390625	-73.18808746337891	-891.018798828125	1131.638549804688	-95.39839935302734	-977.785400390625	1121.41455078125	-44.53137588500977	-793.5856323242188	890.154541015625	-46.26922988891602	-836.4473876953125	866.466552734375	-118.3178405761719	-865.748779296875	1045.51171875	-101.3626022338867	-785.2111206054688	721.5419311523438	-54.64599609375	-827.0234375	806.8017578125	-109.7102813720703	-772.6284790039062	814.8916015625	-67.69797515869141	-904.0197143554688	1464.68896484375	334.2829284667969	-920.02685546875	1398.489379882812	401.0424194335938	-910.5665893554688	1108.422973632812	446.4956970214844	-966.3170776367188	1091.057983398438	422.0005798339844	-778.545654296875	887.9487915039062	393.36279296875	-817.0916748046875	867.7108764648438	463.8237609863281	-897.8245239257812	1053.3115234375	451.7902526855469	-766.568359375	713.990966796875	399.3450012207031	-750.3175048828125	796.3455810546875	404.8895263671875	-800.6310424804688	792.7095336914062	459.3125915527344	-907.112548828125	1683.434692382812	236.5621185302734	-747.6288452148438	1717.107177734375	107.5868453979492	-771.3494873046875	1718.038330078125	249.6908416748047	-872.1043701171875	1681.490356445312	74.53219604492188	-866.1595458984375	938.9652099609375	-24.17514610290527	-877.5422973632812	941.470458984375	364.0113525390625	-788.1749267578125	969.761474609375	306.0877990722656	-786.0723266601562	962.690673828125	29.33696365356445	-864.9293823242188	493.5989990234375	45.68388748168945	-853.4297485351562	658.4922485351562	3.582985162734985	-950.624267578125	33.31986618041992	63.72236251831055	-933.2337036132812	250.0189208984375	45.1137580871582	-741.4091186523438	38.98591613769531	121.1469955444336	-812.2510375976562	40.7470588684082	156.8549346923828	-827.7437744140625	35.07416534423828	50.63298034667969	-1020.313354492188	36.4811897277832	118.7807464599609	-876.3639526367188	496.7191772460938	320.345947265625	-845.345458984375	785.604248046875	362.1113891601562	-977.3826293945312	36.26681137084961	310.16552734375	-884.8605346679688	354.6026306152344	309.0060424804688	-756.2471923828125	39.55231094360352	269.8614196777344	-820.2468872070312	40.5715217590332	228.7487945556641	-843.255859375	36.27756500244141	331.3072814941406	-1031.77001953125	32.55344390869141	253.1093444824219	
72	0.71	-996.9713134765625	1016.273376464844	239.2611846923828	-992.6909790039062	1019.396484375	105.4812545776367	-992.2044067382812	1104.6171875	168.3590240478516	-768.3473510742188	1296.984497070312	162.2515563964844	-1008.838134765625	1229.5859375	168.1344909667969	-968.2496337890625	1503.86474609375	181.4405212402344	-791.0127563476562	1407.750854492188	163.9952239990234	-1034.044921875	1377.111328125	267.0912475585938	-1003.101684570312	1451.2353515625	90.73997497558594	-908.60400390625	1479.826171875	6.779041767120361	-918.4307861328125	1354.043823242188	-73.470703125	-890.2640380859375	1131.739624023438	-95.64833068847656	-977.1128540039062	1121.36083984375	-44.91424179077148	-792.4773559570312	890.4614868164062	-46.21287536621094	-835.131103515625	866.6713256835938	-118.3480911254883	-864.8195190429688	1045.640380859375	-101.5314254760742	-784.0997924804688	721.8162841796875	-54.51513290405273	-825.61572265625	807.0140991210938	-109.6449890136719	-771.379638671875	815.1610107421875	-67.55921173095703	-903.5581665039062	1464.670288085938	334.0115966796875	-919.5455932617188	1398.500366210938	400.756591796875	-910.1044311523438	1108.414428710938	446.0790100097656	-965.89794921875	1091.030883789062	421.6521301269531	-778.1314086914062	887.997802734375	392.8108215332031	-816.541259765625	867.6813354492188	463.2268676757812	-897.31884765625	1053.277465820312	451.3293762207031	-765.9892578125	713.9848022460938	398.685546875	-749.7531127929688	796.3995361328125	404.2222290039062	-800.0443115234375	792.701416015625	458.6106262207031	-906.5263671875	1683.501342773438	236.3585815429688	-747.0560302734375	1717.014404296875	107.3387451171875	-770.7130126953125	1717.970092773438	249.400634765625	-871.5986938476562	1681.579956054688	74.31924438476562	-866.2905883789062	938.9288330078125	-24.61045074462891	-877.4105224609375	941.4773559570312	363.7190551757812	-787.934326171875	969.69921875	305.7513122558594	-786.0975952148438	962.6536254882812	29.11466979980469	-864.98388671875	493.4966735839844	45.55329513549805	-853.403564453125	658.3482055664062	3.410208225250244	-950.6277465820312	33.31946563720703	63.72267150878906	-933.3106689453125	249.9810333251953	45.02987289428711	-741.4114990234375	38.98580551147461	121.1423721313477	-812.2542724609375	40.75287628173828	156.8565521240234	-827.747802734375	35.07302856445312	50.62827301025391	-1020.314514160156	36.47820663452148	118.7744140625	-876.4482421875	496.7402648925781	320.2278442382812	-845.3387451171875	785.6019897460938	361.8440246582031	-977.383056640625	36.28044128417969	310.1483764648438	-884.9139404296875	354.6170654296875	308.9023132324219	-756.2474975585938	39.55260848999023	269.861572265625	-820.2586059570312	40.57880020141602	228.7365417480469	-843.2599487304688	36.27528381347656	331.3099365234375	-1031.770629882812	32.5517578125	253.1007232666016	
73	0.72	-996.8187866210938	1016.373596191406	238.9844360351562	-992.4689331054688	1019.513793945312	105.136833190918	-991.9781494140625	1104.656860351562	168.1142883300781	-768.0518798828125	1296.951049804688	161.9710235595703	-1008.498413085938	1229.668701171875	167.8483581542969	-967.847412109375	1503.904663085938	181.1530609130859	-790.6141357421875	1407.7431640625	163.6799011230469	-1033.64208984375	1377.140869140625	266.8203430175781	-1002.714782714844	1451.2939453125	90.45152282714844	-908.196533203125	1479.8828125	6.547081470489502	-917.987060546875	1354.123168945312	-73.77138519287109	-889.4766235351562	1131.836059570312	-95.90407562255859	-976.41552734375	1121.304931640625	-45.31782150268555	-791.3497924804688	890.7567749023438	-46.21549987792969	-833.8180541992188	866.883544921875	-118.4085693359375	-863.8673095703125	1045.7646484375	-101.7136764526367	-783.0697021484375	722.0494995117188	-54.35759353637695	-824.2129516601562	807.2268676757812	-109.6124954223633	-770.2128295898438	815.3887939453125	-67.39218139648438	-903.0940551757812	1464.6474609375	333.7354125976562	-919.0470581054688	1398.517333984375	400.47900390625	-909.6267700195312	1108.405517578125	445.6538391113281	-965.461669921875	1091.000732421875	421.2960510253906	-777.7399291992188	888.035888671875	392.2919311523438	-815.9946899414062	867.64990234375	462.6600341796875	-896.801025390625	1053.240966796875	450.8663024902344	-765.4141235351562	713.960693359375	398.0544738769531	-749.1943359375	796.4429931640625	403.601806640625	-799.4534912109375	792.6944580078125	457.9201354980469	-905.927978515625	1683.570922851562	236.1600494384766	-746.4795532226562	1716.927734375	107.0805740356445	-770.0996704101562	1717.893310546875	249.1012115478516	-871.0936279296875	1681.672241210938	74.09986114501953	-866.3965454101562	938.8866577148438	-25.02591514587402	-877.2339477539062	941.4734497070312	363.3741149902344	-787.6793212890625	969.6318359375	305.3976135253906	-786.1289672851562	962.58642578125	28.85172462463379	-865.0407104492188	493.3985290527344	45.40132141113281	-853.3447265625	658.1868896484375	3.249099493026733	-950.630859375	33.31925201416016	63.7232666015625	-933.38720703125	249.9404907226562	44.94931030273438	-741.416015625	38.98715591430664	121.137825012207	-812.2589721679688	40.75834655761719	156.8567047119141	-827.7512817382812	35.07232284545898	50.62274169921875	-1020.314025878906	36.474365234375	118.765869140625	-876.5275268554688	496.758544921875	320.0805053710938	-845.2905883789062	785.5965576171875	361.5240173339844	-977.3848876953125	36.2955322265625	310.1305541992188	-884.9707641601562	354.6317138671875	308.7990417480469	-756.2447509765625	39.55238723754883	269.8599548339844	-820.2640991210938	40.58370208740234	228.7267608642578	-843.2687377929688	36.27108383178711	331.3160705566406	-1031.7705078125	32.54993438720703	253.0916442871094	
